<!--?xml version="1.0" standalone="no"?-->
              <svg id="sw-js-blob-svg" viewBox="0 0 100 100" xmlns="http://www.w3.org/2000/svg" version="1.1">
                    <defs> 
                        <linearGradient id="sw-gradient" x1="0" x2="1" y1="1" y2="0">
                            <stop id="stop1" stop-color="rgba(248, 117, 55, 1)" offset="0%"></stop>
                            <stop id="stop2" stop-color="rgba(251, 168, 31, 1)" offset="100%"></stop>
                        </linearGradient>
                    </defs>
                <path fill="url(#sw-gradient)" d="M19.4,-23.6C24.6,-18.9,27.7,-12.1,31.3,-3.8C34.9,4.6,38.9,14.7,35.5,20.4C32.1,26.1,21.3,27.4,12.3,28.2C3.4,29,-3.7,29.3,-10.9,27.7C-18.2,26.1,-25.6,22.6,-30,16.6C-34.3,10.6,-35.5,2.1,-34.5,-6.5C-33.5,-15,-30.2,-23.6,-24.1,-28.2C-18,-32.8,-9,-33.3,-0.9,-32.2C7.1,-31.1,14.3,-28.3,19.4,-23.6Z" width="100%" height="100%" transform="translate(50 50)" stroke-width="0" style="transition: all 0.3s ease 0s;" stroke="url(#sw-gradient)"></path>
              </svg>